HIERARCHY
ROOT Hips
{
    OFFSET 0.000000 0.000000 0.000000
    CHANNELS 6 Xposition Yposition Zposition Zrotation Xrotation Yrotation
    JOINT Spine
    {
        OFFSET -0.000000 7.246840 0.000000
        CHANNELS 3 Zrotation Xrotation Yrotation
        JOINT Spine1
        {
            OFFSET -0.000000 20.289354 0.000000
            CHANNELS 3 Zrotation Xrotation Yrotation
            JOINT Neck
            {
                OFFSET -0.000000 20.206032 1.836912
                CHANNELS 3 Zrotation Xrotation Yrotation
                JOINT Head
                {
                    OFFSET -0.000000 12.372654 -1.767522
                    CHANNELS 3 Zrotation Xrotation Yrotation
                    End Site
                    {
                        OFFSET -0.000000 22.094025 0.000000
                    }
                }
            }
            JOINT LeftShoulder
            {
                OFFSET 3.465871 17.201674 -0.568930
                CHANNELS 3 Zrotation Xrotation Yrotation
                JOINT LeftArm
                {
                    OFFSET 14.070313 0.000000 0.000000
                    CHANNELS 3 Zrotation Xrotation Yrotation
                    JOINT LeftForeArm
                    {
                        OFFSET 26.549477 0.000000 0.000000
                        CHANNELS 3 Zrotation Xrotation Yrotation
                        JOINT LeftHand
                        {
                            OFFSET 18.880413 0.000000 0.000000
                            CHANNELS 3 Zrotation Xrotation Yrotation
                            End Site
                            {
                                OFFSET 13.256415 0.000000 0.000000
                            }
                        }
                    }
                }
            }
            JOINT RightShoulder
            {
                OFFSET -3.526370 17.201674 -0.568930
                CHANNELS 3 Zrotation Xrotation Yrotation
                JOINT RightArm
                {
                    OFFSET -14.070313 0.000000 0.000000
                    CHANNELS 3 Zrotation Xrotation Yrotation
                    JOINT RightForeArm
                    {
                        OFFSET -26.549477 0.000000 0.000000
                        CHANNELS 3 Zrotation Xrotation Yrotation
                        JOINT RightHand
                        {
                            OFFSET -18.880413 0.000000 0.000000
                            CHANNELS 3 Zrotation Xrotation Yrotation
                            End Site
                            {
                                OFFSET -13.256415 0.000000 0.000000
                            }
                        }
                    }
                }
            }
        }
    }
    JOINT LeftUpLeg
    {
        OFFSET 8.837609 0.000000 0.000000
        CHANNELS 3 Zrotation Xrotation Yrotation
        JOINT LeftLeg
        {
            OFFSET -0.000000 -41.345005 0.000000
            CHANNELS 3 Zrotation Xrotation Yrotation
            JOINT LeftFoot
            {
                OFFSET -0.000000 -35.500874 0.000000
                CHANNELS 3 Zrotation Xrotation Yrotation
                JOINT LeftToeBase
                {
                    OFFSET -0.000000 -5.744446 13.256415
                    CHANNELS 3 Zrotation Xrotation Yrotation
                    End Site
                    {
                        OFFSET -0.000000 0.000000 3.535044
                    }
                }
            }
        }
    }
    JOINT RightUpLeg
    {
        OFFSET -8.837609 0.000000 0.000000
        CHANNELS 3 Zrotation Xrotation Yrotation
        JOINT RightLeg
        {
            OFFSET -0.000000 -41.345005 0.000000
            CHANNELS 3 Zrotation Xrotation Yrotation
            JOINT RightFoot
            {
                OFFSET -0.000000 -35.500874 0.000000
                CHANNELS 3 Zrotation Xrotation Yrotation
                JOINT RightToeBase
                {
                    OFFSET -0.000000 -5.744446 13.256415
                    CHANNELS 3 Zrotation Xrotation Yrotation
                    End Site
                    {
                        OFFSET -0.000000 0.000000 3.535044
                    }
                }
            }
        }
    }
}
MOTION
Frames:    9
Frame Time:    0.010000
2.427562    82.141563    -10.682424    2.592374    4.116577    -1.909316    -5.625862    -15.765271    -1.358065    3.818012    4.953090    -0.743722    3.272796    30.879391    -1.778886    -2.605150    -9.844472    -1.967156    19.364656    1.579958    7.256114    -29.832350    12.308901    -10.213010    6.677167    -9.361693    -13.103834    -28.438566    -8.356024    -0.986822    -15.319943    2.919850    11.524252    22.821772    4.387002    8.046425    -4.339457    -8.261984    4.403073    9.062778    -7.040064    13.389128    -2.797542    6.385266    -0.249398    -2.516704    -10.237982    -4.477856    4.586455    0.905409    -3.153330    -1.109696    -2.168029    1.574151    -6.972109    5.018691    0.376639    8.176858    -10.404265    2.813892    0.297263    -0.766354    -5.620925    -0.720934    -1.298706    1.311311    
2.433047    82.142433    -10.681412    2.592484    4.114051    -1.912818    -5.629911    -15.771482    -1.353161    3.852281    4.976317    -0.740275    3.178403    30.850639    -1.767923    -2.528088    -9.838390    -1.952784    19.303257    1.550208    7.255926    -29.778833    12.439647    -10.183563    6.647103    -9.447630    -13.161935    -28.391033    -8.424002    -1.061547    -15.364011    2.897223    11.495010    22.839588    4.399469    8.070436    -4.343042    -8.264393    4.393512    9.020725    -7.045611    13.414680    -2.803164    6.387643    -0.249044    -2.514876    -10.235272    -4.415170    4.569421    0.900771    -3.209415    -1.103708    -2.186526    1.565837    -6.976007    5.018456    0.372214    8.174838    -10.396976    2.836568    0.314595    -0.765001    -5.636151    -0.704208    -1.314777    1.281119    
2.435985    82.142990    -10.681373    2.589337    4.114841    -1.915902    -5.620940    -15.775356    -1.346873    3.812089    4.975819    -0.733296    3.259687    30.852825    -1.781323    -2.560351    -9.842737    -1.962345    19.365578    1.516789    7.217432    -29.727215    12.960474    -10.049273    6.614098    -9.744307    -13.338641    -28.273666    -8.698893    -1.131011    -15.314631    2.924562    11.495932    22.804766    4.385862    8.073753    -4.326067    -8.249775    4.397042    9.015768    -7.031259    13.424692    -2.802608    6.384940    -0.221679    -2.525203    -10.227477    -4.431647    4.581487    0.890147    -3.217187    -1.094759    -2.163271    1.552917    -6.975888    5.017163    0.380038    8.179140    -10.398512    2.832239    0.301613    -0.755396    -5.631533    -0.707577    -1.309316    1.287170    
2.441701    82.143234    -10.681191    2.587995    4.114823    -1.922974    -5.610963    -15.783475    -1.338779    3.795251    4.990806    -0.725832    3.284796    30.839594    -1.783785    -2.572322    -9.843911    -1.964411    19.365534    1.605470    7.260386    -29.723988    12.909205    -10.151556    6.611018    -9.772497    -13.340961    -28.252432    -8.715587    -1.179368    -15.302637    2.920873    11.487011    22.782019    4.425375    8.083471    -4.321087    -8.254219    4.394768    9.079727    -7.029526    13.411446    -2.806877    6.385310    -0.226526    -2.530353    -10.227427    -4.349936    4.593516    0.883841    -3.282513    -1.098231    -2.167439    1.557883    -6.981521    5.014429    0.375511    8.186720    -10.398887    2.830282    0.289791    -0.749376    -5.623271    -0.706297    -1.329991    1.285136    
2.445272    82.143875    -10.680837    2.581657    4.114512    -1.923317    -5.618389    -15.779051    -1.335032    3.818510    4.984155    -0.722095    3.289313    30.841906    -1.795605    -2.580076    -9.852191    -1.977899    19.357254    1.565241    7.238643    -29.743172    12.971706    -10.111126    6.604158    -9.815558    -13.356830    -28.211485    -8.742806    -1.244972    -15.316654    2.921184    11.476978    22.771557    4.482151    8.082851    -4.330914    -8.281859    4.419590    9.175733    -7.049125    13.356225    -2.800406    6.383423    -0.206141    -2.524048    -10.223705    -4.442131    4.575544    0.888879    -3.201208    -1.082363    -2.182735    1.535521    -6.976367    5.012431    0.357193    8.185184    -10.388767    2.847719    0.313383    -0.755340    -5.626791    -0.719586    -1.297722    1.308846    
2.449625    82.143753    -10.680946    2.577435    4.112776    -1.928758    -5.601592    -15.783607    -1.323785    3.796093    4.991526    -0.712296    3.297845    30.827883    -1.797089    -2.567717    -9.836215    -1.975577    19.363474    1.556771    7.230907    -29.753504    12.995773    -10.112642    6.605158    -9.814414    -13.367500    -28.185926    -8.736404    -1.264291    -15.305196    2.924895    11.471902    22.754087    4.531668    8.083591    -4.337579    -8.316788    4.434236    9.273723    -7.074130    13.328712    -2.800260    6.388809    -0.197921    -2.517760    -10.236105    -4.443147    4.578681    0.891105    -3.205694    -1.093419    -2.166899    1.551051    -6.976871    5.012896    0.376289    8.177887    -10.386843    2.872417    0.323721    -0.759640    -5.672475    -0.714140    -1.293613    1.298883    
2.454323    82.143883    -10.681030    2.573406    4.116102    -1.933172    -5.596387    -15.798607    -1.328089    3.792429    5.005829    -0.716828    3.289284    30.845009    -1.784183    -2.555061    -9.868928    -1.960655    19.366827    1.581990    7.260466    -29.768524    13.004347    -10.155005    6.602176    -9.785609    -13.359699    -28.149357    -8.707889    -1.267631    -15.306365    2.923478    11.507677    22.747602    4.524179    8.058351    -4.339099    -8.354164    4.459604    9.349862    -7.099337    13.357529    -2.799502    6.386202    -0.186177    -2.539884    -10.216462    -4.448764    4.601462    0.868200    -3.204830    -1.084759    -2.164738    1.538748    -6.976264    5.009150    0.378944    8.183737    -10.393989    2.815151    0.330246    -0.739779    -5.599578    -0.704572    -1.327796    1.281965    
2.458272    82.143509    -10.681675    2.569584    4.115206    -1.934761    -5.595045    -15.795467    -1.318704    3.795403    5.001163    -0.707840    3.319356    30.831514    -1.798542    -2.582506    -9.849198    -1.977519    19.359350    1.555061    7.236613    -29.780001    13.034120    -10.129857    6.584261    -9.741911    -13.381519    -28.098492    -8.662172    -1.280975    -15.309216    2.918821    11.493412    22.758623    4.546292    8.051207    -4.352185    -8.399812    4.486438    9.351008    -7.141493    13.381454    -2.798204    6.387274    -0.182872    -2.522050    -10.212021    -4.668346    4.576662    0.874588    -2.997285    -1.094974    -2.158836    1.553179    -6.975094    5.008114    0.365495    8.185023    -10.391395    2.840849    0.324844    -0.746045    -5.623865    -0.727968    -1.291604    1.324001    
2.462975    82.143021    -10.681243    2.564567    4.115030    -1.940613    -5.581358    -15.810653    -1.318548    3.784983    5.019654    -0.708878    3.272636    30.846777    -1.785790    -2.516585    -9.872248    -1.956020    19.359732    1.544408    7.228043    -29.812347    13.092649    -10.095968    6.620564    -9.748878    -13.405024    -28.109529    -8.655121    -1.314574    -15.300670    2.940241    11.506334    22.747450    4.506308    8.060789    -4.344453    -8.416098    4.509858    9.267409    -7.163788    13.421388    -2.798316    6.393794    -0.189457    -2.525313    -10.240315    -4.427569    4.609001    0.872811    -3.220477    -1.103639    -2.152882    1.565412    -6.973961    5.007761    0.366418    8.184294    -10.389182    2.836017    0.325600    -0.742501    -5.600536    -0.696990    -1.329811    1.268199    
